<svg xmlns="http://www.w3.org/2000/svg" viewBox="0 0 416 416" shape-rendering="crispEdges"><g fill="#F5F4EE"><rect x="48.0" y="96.0" width="32" height="16"/><rect x="336.0" y="96.0" width="32" height="16"/><rect x="64.0" y="112.0" width="32" height="16"/><rect x="320.0" y="112.0" width="32" height="16"/><rect x="80.0" y="128.0" width="32" height="16"/><rect x="304.0" y="128.0" width="32" height="16"/><rect x="96.0" y="144.0" width="32" height="16"/><rect x="288.0" y="144.0" width="32" height="16"/><rect x="96.0" y="160.0" width="48" height="16"/><rect x="272.0" y="160.0" width="48" height="16"/><rect x="64.0" y="176.0" width="112" height="16"/><rect x="240.0" y="176.0" width="112" height="16"/><rect x="64.0" y="192.0" width="112" height="16"/><rect x="240.0" y="192.0" width="112" height="16"/><rect x="48.0" y="208.0" width="144" height="16"/><rect x="224.0" y="208.0" width="144" height="16"/><rect x="48.0" y="224.0" width="64" height="16"/><rect x="144.0" y="224.0" width="48" height="16"/><rect x="224.0" y="224.0" width="48" height="16"/><rect x="304.0" y="224.0" width="64" height="16"/><rect x="48.0" y="240.0" width="64" height="16"/><rect x="144.0" y="240.0" width="48" height="16"/><rect x="224.0" y="240.0" width="48" height="16"/><rect x="304.0" y="240.0" width="64" height="16"/><rect x="48.0" y="256.0" width="144" height="16"/><rect x="224.0" y="256.0" width="144" height="16"/><rect x="64.0" y="272.0" width="112" height="16"/><rect x="240.0" y="272.0" width="112" height="16"/><rect x="64.0" y="288.0" width="112" height="16"/><rect x="240.0" y="288.0" width="112" height="16"/><rect x="96.0" y="304.0" width="48" height="16"/><rect x="272.0" y="304.0" width="48" height="16"/></g></svg>